<svg preserveAspectRatio="none" width="100%" height="100%" overflow="visible" style="display: block;" viewBox="0 0 507.724 431.204" fill="none" xmlns="http://www.w3.org/2000/svg">
<g id="DXBqbH">
<path id="Vector" d="M507.714 220.784C507.574 199.014 502.264 185.534 492.424 174.264C448.724 124.194 404.994 74.1538 361.414 23.9538C358.064 20.0938 355.924 20.1138 352.744 23.8138C336.764 42.3438 320.364 60.4238 304.664 79.2538C285.324 102.444 286.284 138.014 306.214 160.694C317.294 173.304 328.314 185.984 339.314 198.684C371.654 236.044 403.994 273.394 436.224 310.884C439.604 314.814 441.984 315.324 445.514 311.154C461.344 292.464 477.374 273.994 493.334 255.444C502.964 244.254 507.674 230.764 507.724 220.784H507.714ZM217.214 313.134C217.104 296.034 212.034 281.674 201.544 269.734C178.874 243.924 156.334 217.974 133.724 192.094C113.124 168.504 92.4941 144.934 71.8941 121.344C69.3441 118.424 67.2041 115.054 63.2541 119.624C46.5941 138.904 29.214 157.404 13.194 177.344C-4.62601 199.524 -4.09598 234.004 12.974 253.634C57.414 304.754 101.864 355.874 146.164 407.144C149.654 411.184 151.844 411.464 155.364 407.354C171.114 388.954 187.144 370.884 202.944 352.544C212.364 341.614 216.814 328.184 217.224 313.144L217.214 313.134ZM167.404 426.984C167.724 428.064 168.044 429.154 168.364 430.234C170.304 430.574 172.234 431.204 174.174 431.204C221.294 431.164 268.414 431.194 315.534 430.884C329.184 430.794 342.374 426.464 352.304 415.864C376.184 390.354 399.144 363.704 422.484 337.524C425.644 333.974 423.834 331.374 421.424 328.654C413.324 319.514 405.334 310.244 397.224 301.104C389.124 291.974 381.024 282.824 372.764 273.884C352.404 251.834 322.174 251.864 302.324 274.294C273.144 307.264 244.284 340.604 215.164 373.644C199.374 391.574 183.334 409.214 167.414 426.984H167.404ZM81.564 96.8539C99.974 117.524 116.764 136.214 133.394 155.084C154.234 178.724 185.204 179.204 205.904 155.584C249.184 106.194 292.294 56.6039 335.444 7.05387C336.804 5.49387 337.834 3.56382 339.684 0.813819C336.754 0.463819 335.184 0.103858 333.614 0.103858C286.754 0.073858 239.904 -0.156186 193.044 0.183814C176.064 0.313814 161.234 7.68387 149.004 21.4239C140.894 30.5439 132.934 39.8339 124.794 48.9239C110.914 64.4139 96.944 79.8039 81.554 96.8539H81.564Z" fill="var(--fill-0, #EFEFEF)"/>
</g>
</svg>
