<svg preserveAspectRatio="none" width="100%" height="100%" overflow="visible" style="display: block;" viewBox="0 0 52.12 25.55" fill="none" xmlns="http://www.w3.org/2000/svg">
<g id="Group">
<path id="Vector" d="M7.19998 14.4C11.1764 14.4 14.4 11.1765 14.4 7.20007C14.4 3.22362 11.1764 0 7.19998 0C3.22353 0 0 3.22362 0 7.20007C0 11.1765 3.22353 14.4 7.19998 14.4Z" fill="var(--fill-0, #262B66)"/>
<path id="Vector_2" d="M25.71 25.55C29.1397 25.55 31.92 22.7698 31.92 19.3401C31.92 15.9104 29.1397 13.13 25.71 13.13C22.2803 13.13 19.5 15.9104 19.5 19.3401C19.5 22.7698 22.2803 25.55 25.71 25.55Z" fill="var(--fill-0, #262B66)"/>
<path id="Vector_3" d="M46.9 14.88C49.7829 14.88 52.12 12.543 52.12 9.66003C52.12 6.77711 49.7829 4.44006 46.9 4.44006C44.0171 4.44006 41.68 6.77711 41.68 9.66003C41.68 12.543 44.0171 14.88 46.9 14.88Z" fill="var(--fill-0, #262B66)"/>
</g>
</svg>
