<svg preserveAspectRatio="none" width="100%" height="100%" overflow="visible" style="display: block;" viewBox="0 0 52.11 25.55" fill="none" xmlns="http://www.w3.org/2000/svg">
<g id="Group">
<path id="Vector" d="M44.91 25.55C48.8865 25.55 52.11 22.3264 52.11 18.35C52.11 14.3735 48.8865 11.15 44.91 11.15C40.9336 11.15 37.71 14.3735 37.71 18.35C37.71 22.3264 40.9336 25.55 44.91 25.55Z" fill="var(--fill-0, #262B66)"/>
<path id="Vector_2" d="M26.41 12.42C29.8397 12.42 32.62 9.63965 32.62 6.20996C32.62 2.78027 29.8397 0 26.41 0C22.9803 0 20.2 2.78027 20.2 6.20996C20.2 9.63965 22.9803 12.42 26.41 12.42Z" fill="var(--fill-0, #262B66)"/>
<path id="Vector_3" d="M5.22 21.11C8.10293 21.11 10.44 18.7729 10.44 15.89C10.44 13.0071 8.10293 10.67 5.22 10.67C2.33707 10.67 0 13.0071 0 15.89C0 18.7729 2.33707 21.11 5.22 21.11Z" fill="var(--fill-0, #262B66)"/>
</g>
</svg>
